<?xml version="1.0" encoding="UTF-8" standalone="no"?>
<!DOCTYPE svg PUBLIC "-//W3C//DTD SVG 1.1//EN" "http://www.w3.org/Graphics/SVG/1.1/DTD/svg11.dtd">
<!-- Generated by graphviz version 2.40.1 (0)
 -->
<!-- Title: metrics.test Pages: 1 -->
<svg width="100%" height="100%" xmlns="http://www.w3.org/2000/svg" xmlns:xlink="http://www.w3.org/1999/xlink" onmouseup="handleMouseUp(evt)" onmousedown="handleMouseDown(evt)" onmousemove="handleMouseMove(evt)">
<script type="text/ecmascript"><![CDATA[
/**
 *  SVGPan library 1.2.2
 * ======================
 *
 * Given an unique existing element with id "viewport" (or when missing, the
 * first g-element), including the library into any SVG adds the following
 * capabilities:
 *
 *  - Mouse panning
 *  - Mouse zooming (using the wheel)
 *  - Object dragging
 *
 * You can configure the behaviour of the pan/zoom/drag with the variables
 * listed in the CONFIGURATION section of this file.
 *
 * Known issues:
 *
 *  - Zooming (while panning) on Safari has still some issues
 *
 * Releases:
 *
 * 1.2.2, Tue Aug 30 17:21:56 CEST 2011, Andrea Leofreddi
 *	- Fixed viewBox on root tag (#7)
 *	- Improved zoom speed (#2)
 *
 * 1.2.1, Mon Jul  4 00:33:18 CEST 2011, Andrea Leofreddi
 *	- Fixed a regression with mouse wheel (now working on Firefox 5)
 *	- Working with viewBox attribute (#4)
 *	- Added "use strict;" and fixed resulting warnings (#5)
 *	- Added configuration variables, dragging is disabled by default (#3)
 *
 * 1.2, Sat Mar 20 08:42:50 GMT 2010, Zeng Xiaohui
 *	Fixed a bug with browser mouse handler interaction
 *
 * 1.1, Wed Feb  3 17:39:33 GMT 2010, Zeng Xiaohui
 *	Updated the zoom code to support the mouse wheel on Safari/Chrome
 *
 * 1.0, Andrea Leofreddi
 *	First release
 *
 * This code is licensed under the following BSD license:
 *
 * Copyright 2009-2017 Andrea Leofreddi <a.leofreddi@vleo.net>. All rights reserved.
 *
 * Redistribution and use in source and binary forms, with or without modification, are
 * permitted provided that the following conditions are met:
 *
 *    1. Redistributions of source code must retain the above copyright
 *       notice, this list of conditions and the following disclaimer.
 *    2. Redistributions in binary form must reproduce the above copyright
 *       notice, this list of conditions and the following disclaimer in the
 *       documentation and/or other materials provided with the distribution.
 *    3. Neither the name of the copyright holder nor the names of its
 *       contributors may be used to endorse or promote products derived from
 *       this software without specific prior written permission.
 *
 * THIS SOFTWARE IS PROVIDED BY COPYRIGHT HOLDERS AND CONTRIBUTORS ''AS IS'' AND ANY EXPRESS
 * OR IMPLIED WARRANTIES, INCLUDING, BUT NOT LIMITED TO, THE IMPLIED WARRANTIES OF MERCHANTABILITY
 * AND FITNESS FOR A PARTICULAR PURPOSE ARE DISCLAIMED. IN NO EVENT SHALL COPYRIGHT HOLDERS OR
 * CONTRIBUTORS BE LIABLE FOR ANY DIRECT, INDIRECT, INCIDENTAL, SPECIAL, EXEMPLARY, OR
 * CONSEQUENTIAL DAMAGES (INCLUDING, BUT NOT LIMITED TO, PROCUREMENT OF SUBSTITUTE GOODS OR
 * SERVICES; LOSS OF USE, DATA, OR PROFITS; OR BUSINESS INTERRUPTION) HOWEVER CAUSED AND ON
 * ANY THEORY OF LIABILITY, WHETHER IN CONTRACT, STRICT LIABILITY, OR TORT (INCLUDING
 * NEGLIGENCE OR OTHERWISE) ARISING IN ANY WAY OUT OF THE USE OF THIS SOFTWARE, EVEN IF
 * ADVISED OF THE POSSIBILITY OF SUCH DAMAGE.
 *
 * The views and conclusions contained in the software and documentation are those of the
 * authors and should not be interpreted as representing official policies, either expressed
 * or implied, of Andrea Leofreddi.
 */

"use strict";

/// CONFIGURATION
/// ====>

var enablePan = 1; // 1 or 0: enable or disable panning (default enabled)
var enableZoom = 1; // 1 or 0: enable or disable zooming (default enabled)
var enableDrag = 0; // 1 or 0: enable or disable dragging (default disabled)
var zoomScale = 0.2; // Zoom sensitivity

/// <====
/// END OF CONFIGURATION

var root = document.documentElement;

var state = 'none', svgRoot = null, stateTarget, stateOrigin, stateTf;

setupHandlers(root);

/**
 * Register handlers
 */
function setupHandlers(root){
	setAttributes(root, {
		"onmouseup" : "handleMouseUp(evt)",
		"onmousedown" : "handleMouseDown(evt)",
		"onmousemove" : "handleMouseMove(evt)",
		//"onmouseout" : "handleMouseUp(evt)", // Decomment this to stop the pan functionality when dragging out of the SVG element
	});

	if(navigator.userAgent.toLowerCase().indexOf('webkit') >= 0)
		window.addEventListener('mousewheel', handleMouseWheel, false); // Chrome/Safari
	else
		window.addEventListener('DOMMouseScroll', handleMouseWheel, false); // Others
}

/**
 * Retrieves the root element for SVG manipulation. The element is then cached into the svgRoot global variable.
 */
function getRoot(root) {
	if(svgRoot == null) {
		var r = root.getElementById("viewport") ? root.getElementById("viewport") : root.documentElement, t = r;

		while(t != root) {
			if(t.getAttribute("viewBox")) {
				setCTM(r, t.getCTM());

				t.removeAttribute("viewBox");
			}

			t = t.parentNode;
		}

		svgRoot = r;
	}

	return svgRoot;
}

/**
 * Instance an SVGPoint object with given event coordinates.
 */
function getEventPoint(evt) {
	var p = root.createSVGPoint();

	p.x = evt.clientX;
	p.y = evt.clientY;

	return p;
}

/**
 * Sets the current transform matrix of an element.
 */
function setCTM(element, matrix) {
	var s = "matrix(" + matrix.a + "," + matrix.b + "," + matrix.c + "," + matrix.d + "," + matrix.e + "," + matrix.f + ")";

	element.setAttribute("transform", s);
}

/**
 * Dumps a matrix to a string (useful for debug).
 */
function dumpMatrix(matrix) {
	var s = "[ " + matrix.a + ", " + matrix.c + ", " + matrix.e + "\n  " + matrix.b + ", " + matrix.d + ", " + matrix.f + "\n  0, 0, 1 ]";

	return s;
}

/**
 * Sets attributes of an element.
 */
function setAttributes(element, attributes){
	for (var i in attributes)
		element.setAttributeNS(null, i, attributes[i]);
}

/**
 * Handle mouse wheel event.
 */
function handleMouseWheel(evt) {
	if(!enableZoom)
		return;

	if(evt.preventDefault)
		evt.preventDefault();

	evt.returnValue = false;

	var svgDoc = evt.target.ownerDocument;

	var delta;

	if(evt.wheelDelta)
		delta = evt.wheelDelta / 360; // Chrome/Safari
	else
		delta = evt.detail / -9; // Mozilla

	var z = Math.pow(1 + zoomScale, delta);

	var g = getRoot(svgDoc);
	
	var p = getEventPoint(evt);

	p = p.matrixTransform(g.getCTM().inverse());

	// Compute new scale matrix in current mouse position
	var k = root.createSVGMatrix().translate(p.x, p.y).scale(z).translate(-p.x, -p.y);

        setCTM(g, g.getCTM().multiply(k));

	if(typeof(stateTf) == "undefined")
		stateTf = g.getCTM().inverse();

	stateTf = stateTf.multiply(k.inverse());
}

/**
 * Handle mouse move event.
 */
function handleMouseMove(evt) {
	if(evt.preventDefault)
		evt.preventDefault();

	evt.returnValue = false;

	var svgDoc = evt.target.ownerDocument;

	var g = getRoot(svgDoc);

	if(state == 'pan' && enablePan) {
		// Pan mode
		var p = getEventPoint(evt).matrixTransform(stateTf);

		setCTM(g, stateTf.inverse().translate(p.x - stateOrigin.x, p.y - stateOrigin.y));
	} else if(state == 'drag' && enableDrag) {
		// Drag mode
		var p = getEventPoint(evt).matrixTransform(g.getCTM().inverse());

		setCTM(stateTarget, root.createSVGMatrix().translate(p.x - stateOrigin.x, p.y - stateOrigin.y).multiply(g.getCTM().inverse()).multiply(stateTarget.getCTM()));

		stateOrigin = p;
	}
}

/**
 * Handle click event.
 */
function handleMouseDown(evt) {
	if(evt.preventDefault)
		evt.preventDefault();

	evt.returnValue = false;

	var svgDoc = evt.target.ownerDocument;

	var g = getRoot(svgDoc);

	if(
		evt.target.tagName == "svg"
		|| !enableDrag // Pan anyway when drag is disabled and the user clicked on an element
	) {
		// Pan mode
		state = 'pan';

		stateTf = g.getCTM().inverse();

		stateOrigin = getEventPoint(evt).matrixTransform(stateTf);
	} else {
		// Drag mode
		state = 'drag';

		stateTarget = evt.target;

		stateTf = g.getCTM().inverse();

		stateOrigin = getEventPoint(evt).matrixTransform(stateTf);
	}
}

/**
 * Handle mouse button release event.
 */
function handleMouseUp(evt) {
	if(evt.preventDefault)
		evt.preventDefault();

	evt.returnValue = false;

	var svgDoc = evt.target.ownerDocument;

	if(state == 'pan' || state == 'drag') {
		// Quit pan mode
		state = '';
	}
}
]]></script><g id="viewport" transform="scale(0.5,0.5) translate(0,0)"><g id="graph0" class="graph" transform="scale(1 1) rotate(0) translate(4 1162)">
<title>metrics.test</title>
<polygon fill="#ffffff" stroke="transparent" points="-4,4 -4,-1162 1408,-1162 1408,4 -4,4"/>
<g id="clust1" class="cluster">
<title>cluster_L</title>
<polygon fill="none" stroke="#000000" points="8,-1036 8,-1150 612,-1150 612,-1036 8,-1036"/>
</g>
<!-- File: metrics.test -->
<g id="node1" class="node">
<title>File: metrics.test</title>
<g id="a_node1"><a xlink:title="metrics.test">
<polygon fill="#f8f8f8" stroke="#000000" points="603.5,-1142 16.5,-1142 16.5,-1044 603.5,-1044 603.5,-1142"/>
<text text-anchor="start" x="24.5" y="-1125.2" font-family="Times,serif" font-size="16.00" fill="#000000">File: metrics.test</text>
<text text-anchor="start" x="24.5" y="-1107.2" font-family="Times,serif" font-size="16.00" fill="#000000">Type: alloc_space</text>
<text text-anchor="start" x="24.5" y="-1089.2" font-family="Times,serif" font-size="16.00" fill="#000000">Time: Apr 20, 2021 at 12:28pm (MSK)</text>
<text text-anchor="start" x="24.5" y="-1071.2" font-family="Times,serif" font-size="16.00" fill="#000000">Showing nodes accounting for 484.22MB, 99.27% of 487.79MB total</text>
<text text-anchor="start" x="24.5" y="-1053.2" font-family="Times,serif" font-size="16.00" fill="#000000">Dropped 15 nodes (cum &lt;= 2.44MB)</text>
</a>
</g>
</g>
<!-- N1 -->
<g id="node1" class="node">
<title>N1</title>
<g id="a_node1"><a xlink:title="_/home/alex/Documents/bradfield/csi/intro_to_computer_systems/07_memory_hierarchy_2/metrics.LoadData (484.22MB)">
<polygon fill="#edd5d5" stroke="#b20000" points="802,-811 558,-811 558,-715 802,-715 802,-811"/>
<text text-anchor="middle" x="680" y="-791" font-family="Times,serif" font-size="20.00" fill="#000000">metrics</text>
<text text-anchor="middle" x="680" y="-769" font-family="Times,serif" font-size="20.00" fill="#000000">LoadData</text>
<text text-anchor="middle" x="680" y="-747" font-family="Times,serif" font-size="20.00" fill="#000000">83.43MB (17.10%)</text>
<text text-anchor="middle" x="680" y="-725" font-family="Times,serif" font-size="20.00" fill="#000000">of 484.22MB (99.27%)</text>
</a>
</g>
</g>
<!-- NN1_0 -->
<g id="NN1_0" class="node">
<title>NN1_0</title>
<g id="a_NN1_0"><a xlink:title="30.01MB">
<polygon fill="#f8f8f8" stroke="#000000" points="534,-664 458,-664 454,-660 454,-628 530,-628 534,-632 534,-664"/>
<polyline fill="none" stroke="#000000" points="530,-660 454,-660 "/>
<polyline fill="none" stroke="#000000" points="530,-660 530,-628 "/>
<polyline fill="none" stroke="#000000" points="530,-660 534,-664 "/>
<text text-anchor="middle" x="494" y="-644.1" font-family="Times,serif" font-size="8.00" fill="#000000">512B..26.48MB</text>
</a>
</g>
</g>
<!-- N1&#45;&gt;NN1_0 -->
<g id="edge1" class="edge">
<title>N1-&gt;NN1_0</title>
<g id="a_edge1"><a xlink:title="30.01MB">
<path fill="none" stroke="#000000" d="M557.963,-719.9583C546.1917,-713.2404 534.9503,-705.6149 525,-697 517.4064,-690.4255 511.1187,-681.5174 506.2367,-672.9857"/>
<polygon fill="#000000" stroke="#000000" points="509.259,-671.2136 501.4956,-664.0038 503.0685,-674.4813 509.259,-671.2136"/>
</a>
</g>
<g id="a_edge1-label"><a xlink:title="30.01MB">
<text text-anchor="middle" x="560" y="-685.8" font-family="Times,serif" font-size="14.00" fill="#000000"> 30.01MB</text>
</a>
</g>
</g>
<!-- NN1_1 -->
<g id="NN1_1" class="node">
<title>NN1_1</title>
<g id="a_NN1_1"><a xlink:title="21.01MB">
<polygon fill="#f8f8f8" stroke="#000000" points="614,-664 564,-664 560,-660 560,-628 610,-628 614,-632 614,-664"/>
<polyline fill="none" stroke="#000000" points="610,-660 560,-660 "/>
<polyline fill="none" stroke="#000000" points="610,-660 610,-628 "/>
<polyline fill="none" stroke="#000000" points="610,-660 614,-664 "/>
<text text-anchor="middle" x="587" y="-644.1" font-family="Times,serif" font-size="8.00" fill="#000000">256B</text>
</a>
</g>
</g>
<!-- N1&#45;&gt;NN1_1 -->
<g id="edge2" class="edge">
<title>N1-&gt;NN1_1</title>
<g id="a_edge2"><a xlink:title="21.01MB">
<path fill="none" stroke="#000000" d="M620.2367,-714.6528C615.0384,-709.0316 610.1769,-703.1113 606,-697 601.2016,-689.9794 597.4287,-681.5917 594.5534,-673.6659"/>
<polygon fill="#000000" stroke="#000000" points="597.828,-672.4194 591.3817,-664.0113 591.1776,-674.6042 597.828,-672.4194"/>
</a>
</g>
<g id="a_edge2-label"><a xlink:title="21.01MB">
<text text-anchor="middle" x="641" y="-685.8" font-family="Times,serif" font-size="14.00" fill="#000000"> 21.01MB</text>
</a>
</g>
</g>
<!-- NN1_2 -->
<g id="NN1_2" class="node">
<title>NN1_2</title>
<g id="a_NN1_2"><a xlink:title="18.50MB">
<polygon fill="#f8f8f8" stroke="#000000" points="707,-664 657,-664 653,-660 653,-628 703,-628 707,-632 707,-664"/>
<polyline fill="none" stroke="#000000" points="703,-660 653,-660 "/>
<polyline fill="none" stroke="#000000" points="703,-660 703,-628 "/>
<polyline fill="none" stroke="#000000" points="703,-660 707,-664 "/>
<text text-anchor="middle" x="680" y="-644.1" font-family="Times,serif" font-size="8.00" fill="#000000">16B..80B</text>
</a>
</g>
</g>
<!-- N1&#45;&gt;NN1_2 -->
<g id="edge3" class="edge">
<title>N1-&gt;NN1_2</title>
<g id="a_edge3"><a xlink:title="18.50MB">
<path fill="none" stroke="#000000" d="M680,-714.7361C680,-701.049 680,-686.5904 680,-674.484"/>
<polygon fill="#000000" stroke="#000000" points="683.5001,-674.1168 680,-664.1168 676.5001,-674.1169 683.5001,-674.1168"/>
</a>
</g>
<g id="a_edge3-label"><a xlink:title="18.50MB">
<text text-anchor="middle" x="715" y="-685.8" font-family="Times,serif" font-size="14.00" fill="#000000"> 18.50MB</text>
</a>
</g>
</g>
<!-- NN1_3 -->
<g id="NN1_3" class="node">
<title>NN1_3</title>
<g id="a_NN1_3"><a xlink:title="9MB">
<polygon fill="#f8f8f8" stroke="#000000" points="805.5,-664 744.5,-664 740.5,-660 740.5,-628 801.5,-628 805.5,-632 805.5,-664"/>
<polyline fill="none" stroke="#000000" points="801.5,-660 740.5,-660 "/>
<polyline fill="none" stroke="#000000" points="801.5,-660 801.5,-628 "/>
<polyline fill="none" stroke="#000000" points="801.5,-660 805.5,-664 "/>
<text text-anchor="middle" x="773" y="-644.1" font-family="Times,serif" font-size="8.00" fill="#000000">112B..128B</text>
</a>
</g>
</g>
<!-- N1&#45;&gt;NN1_3 -->
<g id="edge4" class="edge">
<title>N1-&gt;NN1_3</title>
<g id="a_edge4"><a xlink:title="9MB">
<path fill="none" stroke="#000000" d="M736.6443,-714.6261C741.8308,-708.9701 746.7302,-703.0501 751,-697 755.9259,-690.0202 760.0772,-681.7634 763.4001,-673.9495"/>
<polygon fill="#000000" stroke="#000000" points="766.7463,-675.0047 767.162,-664.418 760.2351,-672.4348 766.7463,-675.0047"/>
</a>
</g>
<g id="a_edge4-label"><a xlink:title="9MB">
<text text-anchor="middle" x="778.5" y="-685.8" font-family="Times,serif" font-size="14.00" fill="#000000"> 9MB</text>
</a>
</g>
</g>
<!-- N3 -->
<g id="node3" class="node">
<title>N3</title>
<g id="a_node3"><a xlink:title="encoding/csv.(*Reader).ReadAll (239.77MB)">
<polygon fill="#edd9d5" stroke="#b22200" points="986,-591 698,-591 698,-453 986,-453 986,-591"/>
<text text-anchor="middle" x="842" y="-567.8" font-family="Times,serif" font-size="24.00" fill="#000000">csv</text>
<text text-anchor="middle" x="842" y="-541.8" font-family="Times,serif" font-size="24.00" fill="#000000">(*Reader)</text>
<text text-anchor="middle" x="842" y="-515.8" font-family="Times,serif" font-size="24.00" fill="#000000">ReadAll</text>
<text text-anchor="middle" x="842" y="-489.8" font-family="Times,serif" font-size="24.00" fill="#000000">140.27MB (28.76%)</text>
<text text-anchor="middle" x="842" y="-463.8" font-family="Times,serif" font-size="24.00" fill="#000000">of 239.77MB (49.16%)</text>
</a>
</g>
</g>
<!-- N1&#45;&gt;N3 -->
<g id="edge19" class="edge">
<title>N1-&gt;N3</title>
<g id="a_edge19"><a xlink:title="_/home/alex/Documents/bradfield/csi/intro_to_computer_systems/07_memory_hierarchy_2/metrics.LoadData -&gt; encoding/csv.(*Reader).ReadAll (239.77MB)">
<path fill="none" stroke="#b22200" stroke-width="3" d="M782.7024,-714.9241C789.7055,-709.4572 796.2505,-703.4884 802,-697 825.0394,-670.9993 835.5988,-634.4622 840.1781,-601.4939"/>
<polygon fill="#b22200" stroke="#b22200" stroke-width="3" points="843.6736,-601.7438 841.4145,-591.3926 836.7255,-600.8933 843.6736,-601.7438"/>
</a>
</g>
<g id="a_edge19-label"><a xlink:title="_/home/alex/Documents/bradfield/csi/intro_to_computer_systems/07_memory_hierarchy_2/metrics.LoadData -&gt; encoding/csv.(*Reader).ReadAll (239.77MB)">
<text text-anchor="middle" x="873.5" y="-642.3" font-family="Times,serif" font-size="14.00" fill="#000000"> 239.77MB</text>
</a>
</g>
</g>
<!-- N8 -->
<g id="node8" class="node">
<title>N8</title>
<g id="a_node8"><a xlink:title="strconv.Atoi (6MB)">
<polygon fill="#edeceb" stroke="#b2afa7" points="1102.5,-540 1015.5,-540 1015.5,-504 1102.5,-504 1102.5,-540"/>
<text text-anchor="middle" x="1059" y="-529.1" font-family="Times,serif" font-size="8.00" fill="#000000">strconv</text>
<text text-anchor="middle" x="1059" y="-520.1" font-family="Times,serif" font-size="8.00" fill="#000000">Atoi</text>
<text text-anchor="middle" x="1059" y="-511.1" font-family="Times,serif" font-size="8.00" fill="#000000">0 of 6MB (1.23%)</text>
</a>
</g>
</g>
<!-- N1&#45;&gt;N8 -->
<g id="edge24" class="edge">
<title>N1-&gt;N8</title>
<g id="a_edge24"><a xlink:title="_/home/alex/Documents/bradfield/csi/intro_to_computer_systems/07_memory_hierarchy_2/metrics.LoadData -&gt; strconv.Atoi (6MB)">
<path fill="none" stroke="#b2afa7" d="M802.0141,-721.707C840.2784,-706.2565 881.708,-686.8204 917,-664 956.8714,-638.2184 961.5013,-624.649 995,-591 1008.8419,-577.096 1023.7794,-561.0546 1035.7393,-547.94"/>
<polygon fill="#b2afa7" stroke="#b2afa7" points="1038.6367,-549.9553 1042.7648,-540.1978 1033.4528,-545.2513 1038.6367,-549.9553"/>
</a>
</g>
<g id="a_edge24-label"><a xlink:title="_/home/alex/Documents/bradfield/csi/intro_to_computer_systems/07_memory_hierarchy_2/metrics.LoadData -&gt; strconv.Atoi (6MB)">
<text text-anchor="middle" x="979.5" y="-642.3" font-family="Times,serif" font-size="14.00" fill="#000000"> 6MB</text>
</a>
</g>
</g>
<!-- N12 -->
<g id="node12" class="node">
<title>N12</title>
<g id="a_node12"><a xlink:title="time.Parse (155.01MB)">
<polygon fill="#eddcd5" stroke="#b23300" points="1243,-540 1127,-540 1127,-504 1243,-504 1243,-540"/>
<text text-anchor="middle" x="1185" y="-529.1" font-family="Times,serif" font-size="8.00" fill="#000000">time</text>
<text text-anchor="middle" x="1185" y="-520.1" font-family="Times,serif" font-size="8.00" fill="#000000">Parse</text>
<text text-anchor="middle" x="1185" y="-511.1" font-family="Times,serif" font-size="8.00" fill="#000000">0 of 155.01MB (31.78%)</text>
</a>
</g>
</g>
<!-- N1&#45;&gt;N12 -->
<g id="edge20" class="edge">
<title>N1-&gt;N12</title>
<g id="a_edge20"><a xlink:title="_/home/alex/Documents/bradfield/csi/intro_to_computer_systems/07_memory_hierarchy_2/metrics.LoadData -&gt; time.Parse (155.01MB)">
<path fill="none" stroke="#b23300" stroke-width="2" d="M802.0317,-734.6572C863.8663,-718.0562 939.1706,-694.3436 1003,-664 1055.658,-638.9671 1066.4325,-627.3745 1112,-591 1128.9045,-577.5059 1146.5644,-560.8906 1160.2797,-547.3461"/>
<polygon fill="#b23300" stroke="#b23300" stroke-width="2" points="1162.8578,-549.718 1167.4636,-540.1767 1157.913,-544.7633 1162.8578,-549.718"/>
</a>
</g>
<g id="a_edge20-label"><a xlink:title="_/home/alex/Documents/bradfield/csi/intro_to_computer_systems/07_memory_hierarchy_2/metrics.LoadData -&gt; time.Parse (155.01MB)">
<text text-anchor="middle" x="1104.5" y="-649.8" font-family="Times,serif" font-size="14.00" fill="#000000"> 155.01MB</text>
<text text-anchor="middle" x="1104.5" y="-634.8" font-family="Times,serif" font-size="14.00" fill="#000000"> (inline)</text>
</a>
</g>
</g>
<!-- N2 -->
<g id="node2" class="node">
<title>N2</title>
<g id="a_node2"><a xlink:title="testing.(*B).run1.func1 (484.22MB)">
<polygon fill="#edd5d5" stroke="#b20000" points="738,-1119.5 622,-1119.5 622,-1066.5 738,-1066.5 738,-1119.5"/>
<text text-anchor="middle" x="680" y="-1109.1" font-family="Times,serif" font-size="8.00" fill="#000000">testing</text>
<text text-anchor="middle" x="680" y="-1100.1" font-family="Times,serif" font-size="8.00" fill="#000000">(*B)</text>
<text text-anchor="middle" x="680" y="-1091.1" font-family="Times,serif" font-size="8.00" fill="#000000">run1</text>
<text text-anchor="middle" x="680" y="-1082.1" font-family="Times,serif" font-size="8.00" fill="#000000">func1</text>
<text text-anchor="middle" x="680" y="-1073.1" font-family="Times,serif" font-size="8.00" fill="#000000">0 of 484.22MB (99.27%)</text>
</a>
</g>
</g>
<!-- N11 -->
<g id="node11" class="node">
<title>N11</title>
<g id="a_node11"><a xlink:title="testing.(*B).runN (484.22MB)">
<polygon fill="#edd5d5" stroke="#b20000" points="738,-993 622,-993 622,-949 738,-949 738,-993"/>
<text text-anchor="middle" x="680" y="-982.6" font-family="Times,serif" font-size="8.00" fill="#000000">testing</text>
<text text-anchor="middle" x="680" y="-973.6" font-family="Times,serif" font-size="8.00" fill="#000000">(*B)</text>
<text text-anchor="middle" x="680" y="-964.6" font-family="Times,serif" font-size="8.00" fill="#000000">runN</text>
<text text-anchor="middle" x="680" y="-955.6" font-family="Times,serif" font-size="8.00" fill="#000000">0 of 484.22MB (99.27%)</text>
</a>
</g>
</g>
<!-- N2&#45;&gt;N11 -->
<g id="edge17" class="edge">
<title>N2-&gt;N11</title>
<g id="a_edge17"><a xlink:title="testing.(*B).run1.func1 -&gt; testing.(*B).runN (484.22MB)">
<path fill="none" stroke="#b20000" stroke-width="5" d="M680,-1066.2266C680,-1047.6762 680,-1022.8821 680,-1003.244"/>
<polygon fill="#b20000" stroke="#b20000" stroke-width="5" points="684.3751,-1003.2215 680,-993.2215 675.6251,-1003.2216 684.3751,-1003.2215"/>
</a>
</g>
<g id="a_edge17-label"><a xlink:title="testing.(*B).run1.func1 -&gt; testing.(*B).runN (484.22MB)">
<text text-anchor="middle" x="719.5" y="-1014.8" font-family="Times,serif" font-size="14.00" fill="#000000"> 484.22MB</text>
</a>
</g>
</g>
<!-- NN3_0 -->
<g id="NN3_0" class="node">
<title>NN3_0</title>
<g id="a_NN3_0"><a xlink:title="70.60MB">
<polygon fill="#f8f8f8" stroke="#000000" points="693.5,-402 622.5,-402 618.5,-398 618.5,-366 689.5,-366 693.5,-370 693.5,-402"/>
<polyline fill="none" stroke="#000000" points="689.5,-398 618.5,-398 "/>
<polyline fill="none" stroke="#000000" points="689.5,-398 689.5,-366 "/>
<polyline fill="none" stroke="#000000" points="689.5,-398 693.5,-402 "/>
<text text-anchor="middle" x="656" y="-382.1" font-family="Times,serif" font-size="8.00" fill="#000000">48B..13.55MB</text>
</a>
</g>
</g>
<!-- N3&#45;&gt;NN3_0 -->
<g id="edge5" class="edge">
<title>N3-&gt;NN3_0</title>
<g id="a_edge5"><a xlink:title="70.60MB">
<path fill="none" stroke="#000000" d="M706.7233,-452.9226C699.4081,-447.2634 692.4317,-441.2855 686,-435 679.0608,-428.2185 673.1582,-419.4986 668.472,-411.1938"/>
<polygon fill="#000000" stroke="#000000" points="671.455,-409.346 663.7075,-402.1192 665.2573,-412.6001 671.455,-409.346"/>
</a>
</g>
<g id="a_edge5-label"><a xlink:title="70.60MB">
<text text-anchor="middle" x="721" y="-423.8" font-family="Times,serif" font-size="14.00" fill="#000000"> 70.60MB</text>
</a>
</g>
</g>
<!-- NN3_1 -->
<g id="NN3_1" class="node">
<title>NN3_1</title>
<g id="a_NN3_1"><a xlink:title="26.48MB">
<polygon fill="#f8f8f8" stroke="#000000" points="776,-402 726,-402 722,-398 722,-366 772,-366 776,-370 776,-402"/>
<polyline fill="none" stroke="#000000" points="772,-398 722,-398 "/>
<polyline fill="none" stroke="#000000" points="772,-398 772,-366 "/>
<polyline fill="none" stroke="#000000" points="772,-398 776,-402 "/>
<text text-anchor="middle" x="749" y="-382.1" font-family="Times,serif" font-size="8.00" fill="#000000">26.48MB</text>
</a>
</g>
</g>
<!-- N3&#45;&gt;NN3_1 -->
<g id="edge6" class="edge">
<title>N3-&gt;NN3_1</title>
<g id="a_edge6"><a xlink:title="26.48MB">
<path fill="none" stroke="#000000" d="M779.6252,-452.816C775.4483,-446.9605 771.5128,-440.9855 768,-435 763.763,-427.7806 760.1831,-419.45 757.3129,-411.642"/>
<polygon fill="#000000" stroke="#000000" points="760.6143,-410.4792 754.0608,-402.1544 753.9925,-412.749 760.6143,-410.4792"/>
</a>
</g>
<g id="a_edge6-label"><a xlink:title="26.48MB">
<text text-anchor="middle" x="803" y="-423.8" font-family="Times,serif" font-size="14.00" fill="#000000"> 26.48MB</text>
</a>
</g>
</g>
<!-- NN3_2 -->
<g id="NN3_2" class="node">
<title>NN3_2</title>
<g id="a_NN3_2"><a xlink:title="21.19MB">
<polygon fill="#f8f8f8" stroke="#000000" points="869,-402 819,-402 815,-398 815,-366 865,-366 869,-370 869,-402"/>
<polyline fill="none" stroke="#000000" points="865,-398 815,-398 "/>
<polyline fill="none" stroke="#000000" points="865,-398 865,-366 "/>
<polyline fill="none" stroke="#000000" points="865,-398 869,-402 "/>
<text text-anchor="middle" x="842" y="-382.1" font-family="Times,serif" font-size="8.00" fill="#000000">21.19MB</text>
</a>
</g>
</g>
<!-- N3&#45;&gt;NN3_2 -->
<g id="edge7" class="edge">
<title>N3-&gt;NN3_2</title>
<g id="a_edge7"><a xlink:title="21.19MB">
<path fill="none" stroke="#000000" d="M842,-452.5957C842,-438.3099 842,-424.0473 842,-412.2573"/>
<polygon fill="#000000" stroke="#000000" points="845.5001,-412.1952 842,-402.1952 838.5001,-412.1952 845.5001,-412.1952"/>
</a>
</g>
<g id="a_edge7-label"><a xlink:title="21.19MB">
<text text-anchor="middle" x="877" y="-423.8" font-family="Times,serif" font-size="14.00" fill="#000000"> 21.19MB</text>
</a>
</g>
</g>
<!-- NN3_3 -->
<g id="NN3_3" class="node">
<title>NN3_3</title>
<g id="a_NN3_3"><a xlink:title="16.95MB">
<polygon fill="#f8f8f8" stroke="#000000" points="962,-402 912,-402 908,-398 908,-366 958,-366 962,-370 962,-402"/>
<polyline fill="none" stroke="#000000" points="958,-398 908,-398 "/>
<polyline fill="none" stroke="#000000" points="958,-398 958,-366 "/>
<polyline fill="none" stroke="#000000" points="958,-398 962,-402 "/>
<text text-anchor="middle" x="935" y="-382.1" font-family="Times,serif" font-size="8.00" fill="#000000">16.95MB</text>
</a>
</g>
</g>
<!-- N3&#45;&gt;NN3_3 -->
<g id="edge8" class="edge">
<title>N3-&gt;NN3_3</title>
<g id="a_edge8"><a xlink:title="16.95MB">
<path fill="none" stroke="#000000" d="M901.1099,-452.9676C905.3334,-447.0303 909.3563,-440.9985 913,-435 917.4351,-427.6985 921.4354,-419.3427 924.7705,-411.5368"/>
<polygon fill="#000000" stroke="#000000" points="928.0977,-412.6459 928.622,-402.0641 921.6132,-410.0094 928.0977,-412.6459"/>
</a>
</g>
<g id="a_edge8-label"><a xlink:title="16.95MB">
<text text-anchor="middle" x="955" y="-423.8" font-family="Times,serif" font-size="14.00" fill="#000000"> 16.95MB</text>
</a>
</g>
</g>
<!-- N5 -->
<g id="node5" class="node">
<title>N5</title>
<g id="a_node5"><a xlink:title="encoding/csv.(*Reader).readRecord (99.50MB)">
<polygon fill="#edded5" stroke="#b24300" points="1009.5,-300 790.5,-300 790.5,-200 1009.5,-200 1009.5,-300"/>
<text text-anchor="middle" x="900" y="-279.2" font-family="Times,serif" font-size="21.00" fill="#000000">csv</text>
<text text-anchor="middle" x="900" y="-256.2" font-family="Times,serif" font-size="21.00" fill="#000000">(*Reader)</text>
<text text-anchor="middle" x="900" y="-233.2" font-family="Times,serif" font-size="21.00" fill="#000000">readRecord</text>
<text text-anchor="middle" x="900" y="-210.2" font-family="Times,serif" font-size="21.00" fill="#000000">99.50MB (20.40%)</text>
</a>
</g>
</g>
<!-- N3&#45;&gt;N5 -->
<g id="edge23" class="edge">
<title>N3-&gt;N5</title>
<g id="a_edge23"><a xlink:title="encoding/csv.(*Reader).ReadAll -&gt; encoding/csv.(*Reader).readRecord (99.50MB)">
<path fill="none" stroke="#b24300" stroke-width="2" d="M981.2237,-452.7047C986.0294,-447.2067 990.3395,-441.3129 994,-435 1018.1262,-393.3923 991.5244,-344.8685 960.5424,-307.9577"/>
<polygon fill="#b24300" stroke="#b24300" stroke-width="2" points="963.0731,-305.5334 953.8814,-300.2643 957.781,-310.1154 963.0731,-305.5334"/>
</a>
</g>
<g id="a_edge23-label"><a xlink:title="encoding/csv.(*Reader).ReadAll -&gt; encoding/csv.(*Reader).readRecord (99.50MB)">
<text text-anchor="middle" x="1038" y="-380.3" font-family="Times,serif" font-size="14.00" fill="#000000"> 99.50MB</text>
</a>
</g>
</g>
<!-- N4 -->
<g id="node4" class="node">
<title>N4</title>
<g id="a_node4"><a xlink:title="time.FixedZone (155.01MB)">
<polygon fill="#eddcd5" stroke="#b23300" points="1400.5,-293 1143.5,-293 1143.5,-207 1400.5,-207 1400.5,-293"/>
<text text-anchor="middle" x="1272" y="-269.8" font-family="Times,serif" font-size="24.00" fill="#000000">time</text>
<text text-anchor="middle" x="1272" y="-243.8" font-family="Times,serif" font-size="24.00" fill="#000000">FixedZone</text>
<text text-anchor="middle" x="1272" y="-217.8" font-family="Times,serif" font-size="24.00" fill="#000000">155.01MB (31.78%)</text>
</a>
</g>
</g>
<!-- NN4_0 -->
<g id="NN4_0" class="node">
<title>NN4_0</title>
<g id="a_NN4_0"><a xlink:title="108.51MB">
<polygon fill="#f8f8f8" stroke="#000000" points="1197,-128.5 1147,-128.5 1143,-124.5 1143,-92.5 1193,-92.5 1197,-96.5 1197,-128.5"/>
<polyline fill="none" stroke="#000000" points="1193,-124.5 1143,-124.5 "/>
<polyline fill="none" stroke="#000000" points="1193,-124.5 1193,-92.5 "/>
<polyline fill="none" stroke="#000000" points="1193,-124.5 1197,-128.5 "/>
<text text-anchor="middle" x="1170" y="-108.6" font-family="Times,serif" font-size="8.00" fill="#000000">112B</text>
</a>
</g>
</g>
<!-- N4&#45;&gt;NN4_0 -->
<g id="edge9" class="edge">
<title>N4-&gt;NN4_0</title>
<g id="a_edge9"><a xlink:title="108.51MB">
<path fill="none" stroke="#000000" d="M1209.9326,-206.7959C1202.0517,-199.2506 1194.7484,-190.9275 1189,-182 1180.6885,-169.0918 1175.9963,-152.6498 1173.3557,-138.7882"/>
<polygon fill="#000000" stroke="#000000" points="1176.7881,-138.0911 1171.7102,-128.7924 1169.881,-139.2281 1176.7881,-138.0911"/>
</a>
</g>
<g id="a_edge9-label"><a xlink:title="108.51MB">
<text text-anchor="middle" x="1228.5" y="-163.3" font-family="Times,serif" font-size="14.00" fill="#000000"> 108.51MB</text>
</a>
</g>
</g>
<!-- NN4_1 -->
<g id="NN4_1" class="node">
<title>NN4_1</title>
<g id="a_NN4_1"><a xlink:title="27.50MB">
<polygon fill="#f8f8f8" stroke="#000000" points="1299,-128.5 1249,-128.5 1245,-124.5 1245,-92.5 1295,-92.5 1299,-96.5 1299,-128.5"/>
<polyline fill="none" stroke="#000000" points="1295,-124.5 1245,-124.5 "/>
<polyline fill="none" stroke="#000000" points="1295,-124.5 1295,-92.5 "/>
<polyline fill="none" stroke="#000000" points="1295,-124.5 1299,-128.5 "/>
<text text-anchor="middle" x="1272" y="-108.6" font-family="Times,serif" font-size="8.00" fill="#000000">32B</text>
</a>
</g>
</g>
<!-- N4&#45;&gt;NN4_1 -->
<g id="edge10" class="edge">
<title>N4-&gt;NN4_1</title>
<g id="a_edge10"><a xlink:title="27.50MB">
<path fill="none" stroke="#000000" d="M1272,-206.626C1272,-184.4911 1272,-158.2001 1272,-138.7132"/>
<polygon fill="#000000" stroke="#000000" points="1275.5001,-138.6567 1272,-128.6567 1268.5001,-138.6567 1275.5001,-138.6567"/>
</a>
</g>
<g id="a_edge10-label"><a xlink:title="27.50MB">
<text text-anchor="middle" x="1307" y="-163.3" font-family="Times,serif" font-size="14.00" fill="#000000"> 27.50MB</text>
</a>
</g>
</g>
<!-- NN4_2 -->
<g id="NN4_2" class="node">
<title>NN4_2</title>
<g id="a_NN4_2"><a xlink:title="19MB">
<polygon fill="#f8f8f8" stroke="#000000" points="1392,-128.5 1342,-128.5 1338,-124.5 1338,-92.5 1388,-92.5 1392,-96.5 1392,-128.5"/>
<polyline fill="none" stroke="#000000" points="1388,-124.5 1338,-124.5 "/>
<polyline fill="none" stroke="#000000" points="1388,-124.5 1388,-92.5 "/>
<polyline fill="none" stroke="#000000" points="1388,-124.5 1392,-128.5 "/>
<text text-anchor="middle" x="1365" y="-108.6" font-family="Times,serif" font-size="8.00" fill="#000000">16B</text>
</a>
</g>
</g>
<!-- N4&#45;&gt;NN4_2 -->
<g id="edge11" class="edge">
<title>N4-&gt;NN4_2</title>
<g id="a_edge11"><a xlink:title="19MB">
<path fill="none" stroke="#000000" d="M1323.6728,-206.7822C1330.867,-199.0814 1337.6234,-190.7158 1343,-182 1351.1505,-168.7876 1356.486,-152.3254 1359.8584,-138.5288"/>
<polygon fill="#000000" stroke="#000000" points="1363.313,-139.1175 1362.0687,-128.596 1356.4801,-137.597 1363.313,-139.1175"/>
</a>
</g>
<g id="a_edge11-label"><a xlink:title="19MB">
<text text-anchor="middle" x="1380" y="-163.3" font-family="Times,serif" font-size="14.00" fill="#000000"> 19MB</text>
</a>
</g>
</g>
<!-- NN5_0 -->
<g id="NN5_0" class="node">
<title>NN5_0</title>
<g id="a_NN5_0"><a xlink:title="91.50MB">
<polygon fill="#f8f8f8" stroke="#000000" points="834,-128.5 784,-128.5 780,-124.5 780,-92.5 830,-92.5 834,-96.5 834,-128.5"/>
<polyline fill="none" stroke="#000000" points="830,-124.5 780,-124.5 "/>
<polyline fill="none" stroke="#000000" points="830,-124.5 830,-92.5 "/>
<polyline fill="none" stroke="#000000" points="830,-124.5 834,-128.5 "/>
<text text-anchor="middle" x="807" y="-108.6" font-family="Times,serif" font-size="8.00" fill="#000000">48B</text>
</a>
</g>
</g>
<!-- N5&#45;&gt;NN5_0 -->
<g id="edge12" class="edge">
<title>N5-&gt;NN5_0</title>
<g id="a_edge12"><a xlink:title="91.50MB">
<path fill="none" stroke="#000000" d="M838.9165,-199.6283C834.1137,-194.0274 829.7005,-188.1221 826,-182 818.0583,-168.8611 813.3906,-152.4038 810.6709,-138.5915"/>
<polygon fill="#000000" stroke="#000000" points="814.1033,-137.8999 808.9489,-128.6434 807.2059,-139.0939 814.1033,-137.8999"/>
</a>
</g>
<g id="a_edge12-label"><a xlink:title="91.50MB">
<text text-anchor="middle" x="861" y="-163.3" font-family="Times,serif" font-size="14.00" fill="#000000"> 91.50MB</text>
</a>
</g>
</g>
<!-- NN5_1 -->
<g id="NN5_1" class="node">
<title>NN5_1</title>
<g id="a_NN5_1"><a xlink:title="4.50MB">
<polygon fill="#f8f8f8" stroke="#000000" points="927,-128.5 877,-128.5 873,-124.5 873,-92.5 923,-92.5 927,-96.5 927,-128.5"/>
<polyline fill="none" stroke="#000000" points="923,-124.5 873,-124.5 "/>
<polyline fill="none" stroke="#000000" points="923,-124.5 923,-92.5 "/>
<polyline fill="none" stroke="#000000" points="923,-124.5 927,-128.5 "/>
<text text-anchor="middle" x="900" y="-108.6" font-family="Times,serif" font-size="8.00" fill="#000000">80B</text>
</a>
</g>
</g>
<!-- N5&#45;&gt;NN5_1 -->
<g id="edge13" class="edge">
<title>N5-&gt;NN5_1</title>
<g id="a_edge13"><a xlink:title="4.50MB">
<path fill="none" stroke="#000000" d="M900,-199.6373C900,-179.0851 900,-156.0935 900,-138.6089"/>
<polygon fill="#000000" stroke="#000000" points="903.5001,-138.505 900,-128.505 896.5001,-138.505 903.5001,-138.505"/>
</a>
</g>
<g id="a_edge13-label"><a xlink:title="4.50MB">
<text text-anchor="middle" x="930.5" y="-163.3" font-family="Times,serif" font-size="14.00" fill="#000000"> 4.50MB</text>
</a>
</g>
</g>
<!-- NN5_2 -->
<g id="NN5_2" class="node">
<title>NN5_2</title>
<g id="a_NN5_2"><a xlink:title="3.50MB">
<polygon fill="#f8f8f8" stroke="#000000" points="1011,-128.5 961,-128.5 957,-124.5 957,-92.5 1007,-92.5 1011,-96.5 1011,-128.5"/>
<polyline fill="none" stroke="#000000" points="1007,-124.5 957,-124.5 "/>
<polyline fill="none" stroke="#000000" points="1007,-124.5 1007,-92.5 "/>
<polyline fill="none" stroke="#000000" points="1007,-124.5 1011,-128.5 "/>
<text text-anchor="middle" x="984" y="-108.6" font-family="Times,serif" font-size="8.00" fill="#000000">64B</text>
</a>
</g>
</g>
<!-- N5&#45;&gt;NN5_2 -->
<g id="edge14" class="edge">
<title>N5-&gt;NN5_2</title>
<g id="a_edge14"><a xlink:title="3.50MB">
<path fill="none" stroke="#000000" d="M949.963,-199.8944C954.3948,-194.1188 958.514,-188.1042 962,-182 969.6473,-168.6092 974.9335,-152.259 978.4036,-138.5753"/>
<polygon fill="#000000" stroke="#000000" points="981.8381,-139.259 980.7123,-128.7241 975.0228,-137.6617 981.8381,-139.259"/>
</a>
</g>
<g id="a_edge14-label"><a xlink:title="3.50MB">
<text text-anchor="middle" x="1004.5" y="-163.3" font-family="Times,serif" font-size="14.00" fill="#000000"> 3.50MB</text>
</a>
</g>
</g>
<!-- N6 -->
<g id="node6" class="node">
<title>N6</title>
<g id="a_node6"><a xlink:title="strconv.syntaxError (6MB)">
<polygon fill="#edeceb" stroke="#b2afa7" points="1124.5,-134 1029.5,-134 1029.5,-87 1124.5,-87 1124.5,-134"/>
<text text-anchor="middle" x="1077" y="-120.4" font-family="Times,serif" font-size="12.00" fill="#000000">strconv</text>
<text text-anchor="middle" x="1077" y="-107.4" font-family="Times,serif" font-size="12.00" fill="#000000">syntaxError</text>
<text text-anchor="middle" x="1077" y="-94.4" font-family="Times,serif" font-size="12.00" fill="#000000">6MB (1.23%)</text>
</a>
</g>
</g>
<!-- NN6_0 -->
<g id="NN6_0" class="node">
<title>NN6_0</title>
<g id="a_NN6_0"><a xlink:title="6MB">
<polygon fill="#f8f8f8" stroke="#000000" points="1104,-36 1054,-36 1050,-32 1050,0 1100,0 1104,-4 1104,-36"/>
<polyline fill="none" stroke="#000000" points="1100,-32 1050,-32 "/>
<polyline fill="none" stroke="#000000" points="1100,-32 1100,0 "/>
<polyline fill="none" stroke="#000000" points="1100,-32 1104,-36 "/>
<text text-anchor="middle" x="1077" y="-16.1" font-family="Times,serif" font-size="8.00" fill="#000000">48B</text>
</a>
</g>
</g>
<!-- N6&#45;&gt;NN6_0 -->
<g id="edge15" class="edge">
<title>N6-&gt;NN6_0</title>
<g id="a_edge15"><a xlink:title="6MB">
<path fill="none" stroke="#000000" d="M1077,-86.679C1077,-74.3839 1077,-59.2986 1077,-46.4008"/>
<polygon fill="#000000" stroke="#000000" points="1080.5001,-46.1905 1077,-36.1905 1073.5001,-46.1905 1080.5001,-46.1905"/>
</a>
</g>
<g id="a_edge15-label"><a xlink:title="6MB">
<text text-anchor="middle" x="1096.5" y="-57.8" font-family="Times,serif" font-size="14.00" fill="#000000"> 6MB</text>
</a>
</g>
</g>
<!-- N7 -->
<g id="node7" class="node">
<title>N7</title>
<g id="a_node7"><a xlink:title="_/home/alex/Documents/bradfield/csi/intro_to_computer_systems/07_memory_hierarchy_2/metrics.BenchmarkMetrics (484.22MB)">
<polygon fill="#edd5d5" stroke="#b20000" points="738,-898 622,-898 622,-862 738,-862 738,-898"/>
<text text-anchor="middle" x="680" y="-887.1" font-family="Times,serif" font-size="8.00" fill="#000000">metrics</text>
<text text-anchor="middle" x="680" y="-878.1" font-family="Times,serif" font-size="8.00" fill="#000000">BenchmarkMetrics</text>
<text text-anchor="middle" x="680" y="-869.1" font-family="Times,serif" font-size="8.00" fill="#000000">0 of 484.22MB (99.27%)</text>
</a>
</g>
</g>
<!-- N7&#45;&gt;N1 -->
<g id="edge16" class="edge">
<title>N7-&gt;N1</title>
<g id="a_edge16"><a xlink:title="_/home/alex/Documents/bradfield/csi/intro_to_computer_systems/07_memory_hierarchy_2/metrics.BenchmarkMetrics -&gt; _/home/alex/Documents/bradfield/csi/intro_to_computer_systems/07_memory_hierarchy_2/metrics.LoadData (484.22MB)">
<path fill="none" stroke="#b20000" stroke-width="5" d="M680,-861.9752C680,-850.9339 680,-836.1195 680,-821.3204"/>
<polygon fill="#b20000" stroke="#b20000" stroke-width="5" points="684.3751,-821.1239 680,-811.1239 675.6251,-821.124 684.3751,-821.1239"/>
</a>
</g>
<g id="a_edge16-label"><a xlink:title="_/home/alex/Documents/bradfield/csi/intro_to_computer_systems/07_memory_hierarchy_2/metrics.BenchmarkMetrics -&gt; _/home/alex/Documents/bradfield/csi/intro_to_computer_systems/07_memory_hierarchy_2/metrics.LoadData (484.22MB)">
<text text-anchor="middle" x="719.5" y="-832.8" font-family="Times,serif" font-size="14.00" fill="#000000"> 484.22MB</text>
</a>
</g>
</g>
<!-- N9 -->
<g id="node9" class="node">
<title>N9</title>
<g id="a_node9"><a xlink:title="strconv.ParseInt (6MB)">
<polygon fill="#edeceb" stroke="#b2afa7" points="1195.5,-402 1108.5,-402 1108.5,-366 1195.5,-366 1195.5,-402"/>
<text text-anchor="middle" x="1152" y="-391.1" font-family="Times,serif" font-size="8.00" fill="#000000">strconv</text>
<text text-anchor="middle" x="1152" y="-382.1" font-family="Times,serif" font-size="8.00" fill="#000000">ParseInt</text>
<text text-anchor="middle" x="1152" y="-373.1" font-family="Times,serif" font-size="8.00" fill="#000000">0 of 6MB (1.23%)</text>
</a>
</g>
</g>
<!-- N8&#45;&gt;N9 -->
<g id="edge25" class="edge">
<title>N8-&gt;N9</title>
<g id="a_edge25"><a xlink:title="strconv.Atoi -&gt; strconv.ParseInt (6MB)">
<path fill="none" stroke="#b2afa7" d="M1071.1581,-503.9589C1087.2409,-480.0941 1115.7072,-437.8538 1134.2099,-410.3981"/>
<polygon fill="#b2afa7" stroke="#b2afa7" points="1137.1528,-412.2942 1139.8389,-402.0455 1131.3479,-408.3822 1137.1528,-412.2942"/>
</a>
</g>
<g id="a_edge25-label"><a xlink:title="strconv.Atoi -&gt; strconv.ParseInt (6MB)">
<text text-anchor="middle" x="1146.5" y="-423.8" font-family="Times,serif" font-size="14.00" fill="#000000"> 6MB</text>
</a>
</g>
</g>
<!-- N10 -->
<g id="node10" class="node">
<title>N10</title>
<g id="a_node10"><a xlink:title="strconv.ParseUint (6MB)">
<polygon fill="#edeceb" stroke="#b2afa7" points="1123.5,-268 1036.5,-268 1036.5,-232 1123.5,-232 1123.5,-268"/>
<text text-anchor="middle" x="1080" y="-257.1" font-family="Times,serif" font-size="8.00" fill="#000000">strconv</text>
<text text-anchor="middle" x="1080" y="-248.1" font-family="Times,serif" font-size="8.00" fill="#000000">ParseUint</text>
<text text-anchor="middle" x="1080" y="-239.1" font-family="Times,serif" font-size="8.00" fill="#000000">0 of 6MB (1.23%)</text>
</a>
</g>
</g>
<!-- N9&#45;&gt;N10 -->
<g id="edge26" class="edge">
<title>N9-&gt;N10</title>
<g id="a_edge26"><a xlink:title="strconv.ParseInt -&gt; strconv.ParseUint (6MB)">
<path fill="none" stroke="#b2afa7" d="M1142.2898,-365.9282C1130.0511,-343.1506 1108.899,-303.7843 1094.6813,-277.3236"/>
<polygon fill="#b2afa7" stroke="#b2afa7" points="1097.6027,-275.3658 1089.7863,-268.2135 1091.4364,-278.679 1097.6027,-275.3658"/>
</a>
</g>
<g id="a_edge26-label"><a xlink:title="strconv.ParseInt -&gt; strconv.ParseUint (6MB)">
<text text-anchor="middle" x="1149.5" y="-329.3" font-family="Times,serif" font-size="14.00" fill="#000000"> 6MB</text>
</a>
</g>
</g>
<!-- N10&#45;&gt;N6 -->
<g id="edge27" class="edge">
<title>N10-&gt;N6</title>
<g id="a_edge27"><a xlink:title="strconv.ParseUint -&gt; strconv.syntaxError (6MB)">
<path fill="none" stroke="#b2afa7" d="M1079.6078,-231.7628C1079.1339,-209.7255 1078.3266,-172.1879 1077.7355,-144.7018"/>
<polygon fill="#b2afa7" stroke="#b2afa7" points="1081.2271,-144.2695 1077.5128,-134.3471 1074.2287,-144.4201 1081.2271,-144.2695"/>
</a>
</g>
<g id="a_edge27-label"><a xlink:title="strconv.ParseUint -&gt; strconv.syntaxError (6MB)">
<text text-anchor="middle" x="1105.5" y="-170.8" font-family="Times,serif" font-size="14.00" fill="#000000"> 6MB</text>
<text text-anchor="middle" x="1105.5" y="-155.8" font-family="Times,serif" font-size="14.00" fill="#000000"> (inline)</text>
</a>
</g>
</g>
<!-- N11&#45;&gt;N7 -->
<g id="edge18" class="edge">
<title>N11-&gt;N7</title>
<g id="a_edge18"><a xlink:title="testing.(*B).runN -&gt; _/home/alex/Documents/bradfield/csi/intro_to_computer_systems/07_memory_hierarchy_2/metrics.BenchmarkMetrics (484.22MB)">
<path fill="none" stroke="#b20000" stroke-width="5" d="M680,-948.9714C680,-936.8075 680,-921.5615 680,-908.499"/>
<polygon fill="#b20000" stroke="#b20000" stroke-width="5" points="684.3751,-908.1555 680,-898.1556 675.6251,-908.1556 684.3751,-908.1555"/>
</a>
</g>
<g id="a_edge18-label"><a xlink:title="testing.(*B).runN -&gt; _/home/alex/Documents/bradfield/csi/intro_to_computer_systems/07_memory_hierarchy_2/metrics.BenchmarkMetrics (484.22MB)">
<text text-anchor="middle" x="719.5" y="-919.8" font-family="Times,serif" font-size="14.00" fill="#000000"> 484.22MB</text>
</a>
</g>
</g>
<!-- N13 -->
<g id="node13" class="node">
<title>N13</title>
<g id="a_node13"><a xlink:title="time.parse (155.01MB)">
<polygon fill="#eddcd5" stroke="#b23300" points="1330,-402 1214,-402 1214,-366 1330,-366 1330,-402"/>
<text text-anchor="middle" x="1272" y="-391.1" font-family="Times,serif" font-size="8.00" fill="#000000">time</text>
<text text-anchor="middle" x="1272" y="-382.1" font-family="Times,serif" font-size="8.00" fill="#000000">parse</text>
<text text-anchor="middle" x="1272" y="-373.1" font-family="Times,serif" font-size="8.00" fill="#000000">0 of 155.01MB (31.78%)</text>
</a>
</g>
</g>
<!-- N12&#45;&gt;N13 -->
<g id="edge21" class="edge">
<title>N12-&gt;N13</title>
<g id="a_edge21"><a xlink:title="time.Parse -&gt; time.parse (155.01MB)">
<path fill="none" stroke="#b23300" stroke-width="2" d="M1196.3737,-503.9589C1211.3538,-480.1974 1237.8184,-438.2192 1255.1324,-410.7555"/>
<polygon fill="#b23300" stroke="#b23300" stroke-width="2" points="1258.2512,-412.3714 1260.6235,-402.0455 1252.3297,-408.6382 1258.2512,-412.3714"/>
</a>
</g>
<g id="a_edge21-label"><a xlink:title="time.Parse -&gt; time.parse (155.01MB)">
<text text-anchor="middle" x="1287.5" y="-423.8" font-family="Times,serif" font-size="14.00" fill="#000000"> 155.01MB</text>
</a>
</g>
</g>
<!-- N13&#45;&gt;N4 -->
<g id="edge22" class="edge">
<title>N13-&gt;N4</title>
<g id="a_edge22"><a xlink:title="time.parse -&gt; time.FixedZone (155.01MB)">
<path fill="none" stroke="#b23300" stroke-width="2" d="M1272,-365.9282C1272,-349.8211 1272,-325.4188 1272,-303.1508"/>
<polygon fill="#b23300" stroke="#b23300" stroke-width="2" points="1275.5001,-303.1071 1272,-293.1072 1268.5001,-303.1072 1275.5001,-303.1071"/>
</a>
</g>
<g id="a_edge22-label"><a xlink:title="time.parse -&gt; time.FixedZone (155.01MB)">
<text text-anchor="middle" x="1311.5" y="-336.8" font-family="Times,serif" font-size="14.00" fill="#000000"> 155.01MB</text>
<text text-anchor="middle" x="1311.5" y="-321.8" font-family="Times,serif" font-size="14.00" fill="#000000"> (inline)</text>
</a>
</g>
</g>
</g>
</g></svg>